<svg width="273" height="79" viewBox="0 0 273 79" fill="none" xmlns="http://www.w3.org/2000/svg">
<path d="M147.17 44.01C141.54 44.01 136.92 38.95 136.45 38.43C136.95 37.55 143.38 25.96 143.38 14.12C143.38 10.28 142.35 6.76 140.47 4.19C138.47 1.45 135.69 0 132.45 0C129.21 0 126.44 1.45 124.43 4.19C122.55 6.76 121.52 10.28 121.52 14.12C121.52 25.99 127.97 37.6 128.44 38.44C128.05 38.96 124.17 44.02 118.53 44.02C112.91 44.02 109.02 38.96 108.63 38.44C109.11 37.6 115.56 25.99 115.56 14.12C115.56 10.28 114.53 6.76 112.65 4.19C110.65 1.45 107.87 0 104.63 0C101.39 0 98.6101 1.45 96.6101 4.19C94.7301 6.76 93.7001 10.28 93.7001 14.12C93.7001 25.97 100.13 37.55 100.63 38.43C100.16 38.96 95.5401 44.01 89.9101 44.01H89.8301L89.8401 50.31H89.9301C96.3301 50.31 101.71 46.72 104.65 43.33C108.87 47.96 113.55 50.31 118.56 50.31C123.56 50.31 128.24 47.96 132.46 43.33C135.4 46.72 140.78 50.31 147.18 50.31H147.26L147.27 44.1V44.02H147.17V44.01ZM132.45 6.52C135.68 6.52 136.85 11.06 136.85 14.11C136.85 21.07 134.13 28.14 132.45 31.84C130.77 28.14 128.05 21.07 128.05 14.11C128.05 11.06 129.22 6.52 132.45 6.52ZM109.03 14.11C109.03 21.07 106.31 28.14 104.63 31.84C102.95 28.14 100.23 21.07 100.23 14.11C100.23 11.06 101.4 6.52 104.63 6.52C107.86 6.52 109.03 11.06 109.03 14.11Z" fill="#EEC319"/>
<path d="M50.5 17.9199L38.98 49.9499H32.78L25.28 27.7299L17.72 49.9499H11.52L0 17.9199H7.63L14.58 39.3199L22.22 17.9199H28.28L35.92 39.2499L42.87 17.9199H50.5Z" fill="#EEC319"/>
<path d="M85.4704 36.0494H60.3204C61.0004 40.8894 64.0704 44.5694 70.0704 44.5694C73.2004 44.5694 75.5904 43.6194 76.8904 41.5694H84.6603C82.6203 47.3594 76.9604 50.7694 70.0104 50.7694C59.9204 50.7694 53.1104 43.4794 53.1104 33.9394C53.1104 24.4694 59.8603 17.1094 69.6003 17.1094C80.2203 17.0994 86.8304 25.2094 85.4704 36.0494ZM60.4604 31.1394H78.4503C78.0403 25.8894 74.6303 23.0994 69.6603 23.0994C64.3403 23.0994 61.2804 26.6394 60.4604 31.1394Z" fill="#EEC319"/>
<path d="M183.83 17.9194V49.9494H176.81V47.4294C174.08 49.5394 170.61 50.7694 166.52 50.7694C157.52 50.7694 150.3 43.2694 150.3 33.9394C150.3 24.5994 157.52 17.1094 166.52 17.1094C170.61 17.1094 174.09 18.3394 176.81 20.4494V17.9294H183.83V17.9194ZM176.81 39.7294V28.1394C174.42 24.7294 171.08 23.5094 167.54 23.5094C161.68 23.5094 157.39 28.2094 157.39 33.9394C157.39 39.6694 161.68 44.3694 167.54 44.3694C171.09 44.3594 174.43 43.1294 176.81 39.7294Z" fill="#EEC319"/>
<path d="M226.11 33.8605C226.11 43.2705 218.82 50.7605 209.82 50.7605C205.73 50.7605 202.25 49.5305 199.6 47.4205V49.9405H192.51V1.56055H199.6V20.3705C202.26 18.3305 205.73 17.1005 209.82 17.1005C218.82 17.1005 226.11 24.6005 226.11 33.8605ZM219.02 33.8605C219.02 28.2005 214.73 23.5005 208.8 23.5005C205.26 23.5005 201.98 24.6605 199.6 28.0005V39.7905C201.99 43.1305 205.26 44.3605 208.8 44.3605C214.73 44.3605 219.02 39.5905 219.02 33.8605Z" fill="#EEC319"/>
<path d="M262.67 36.0494H237.52C238.2 40.8894 241.27 44.5694 247.27 44.5694C250.41 44.5694 252.79 43.6194 254.08 41.5694H261.85C259.81 47.3594 254.15 50.7694 247.2 50.7694C237.11 50.7694 230.3 43.4794 230.3 33.9394C230.3 24.4694 237.05 17.1094 246.79 17.1094C257.42 17.0994 264.03 25.2094 262.67 36.0494ZM237.66 31.1394H255.65C255.24 25.8894 251.83 23.0994 246.86 23.0994C241.54 23.0994 238.48 26.6394 237.66 31.1394Z" fill="#EEC319"/>
<path d="M272.16 22.0008C272.16 24.3908 270.21 26.1708 267.87 26.1708C265.52 26.1708 263.56 24.3908 263.56 22.0008C263.56 19.5908 265.51 17.8008 267.87 17.8008C270.21 17.7908 272.16 19.5908 272.16 22.0008ZM271.13 22.0008C271.13 20.1708 269.6 18.7408 267.85 18.7408C266.09 18.7408 264.59 20.1708 264.59 22.0008C264.59 23.8008 266.09 25.2408 267.85 25.2408C269.6 25.2408 271.13 23.7908 271.13 22.0008ZM268.71 22.4808L269.67 23.7508H268.71L267.87 22.5808H267.23V23.7508H266.46V19.9908H268.06C268.92 19.9908 269.54 20.5108 269.54 21.3208C269.54 21.8708 269.21 22.2908 268.71 22.4808ZM267.22 21.9108H268.06C268.48 21.9108 268.76 21.6708 268.76 21.3008C268.76 20.9508 268.48 20.7108 268.06 20.7108H267.22V21.9108Z" fill="#EEC319"/>
<path d="M62.7406 66.8516L58.3306 77.1116H55.7706L51.3506 66.8516H54.1406L57.0506 73.7716L59.9606 66.8516H62.7406Z" fill="white"/>
<path d="M69.9707 69.0516V70.9116H74.5007V73.0716H69.9707V74.8416H75.1407V77.0516H67.4307V66.8516H75.1407V69.0616H69.9707V69.0516Z" fill="white"/>
<path d="M89.7111 66.8516V77.0516H87.7611L82.871 71.4616V77.0516H80.3311V66.8516H82.271L87.1911 72.6016V66.8516H89.7111Z" fill="white"/>
<path d="M103.63 69.1098H100.38V77.0398H97.8604V69.1098H94.6104V66.8398H103.64V69.1098H103.63Z" fill="white"/>
<path d="M117.85 72.2916C117.85 75.4616 116.02 77.2416 113.1 77.2416C110.19 77.2416 108.36 75.4616 108.36 72.2916V66.8516H110.91V72.3416C110.91 73.9016 111.77 74.8816 113.1 74.8816C114.43 74.8816 115.3 73.9016 115.3 72.3416V66.8516H117.85V72.2916Z" fill="white"/>
<path d="M129.661 77.0516L127.731 74.0916H127.711H125.791V77.0516H123.261V66.8516H127.711C130.251 66.8516 131.941 68.2316 131.941 70.4316C131.941 71.7616 131.291 72.8516 130.211 73.4716L132.611 77.0416H129.661V77.0516ZM125.791 71.8116H127.671C128.651 71.8116 129.411 71.2716 129.411 70.4316C129.411 69.6016 128.651 69.0816 127.671 69.0816H125.791V71.8116Z" fill="white"/>
<path d="M139.86 69.0516V70.9116H144.39V73.0716H139.86V74.8416H145.03V77.0516H137.32V66.8516H145.03V69.0616H139.86V69.0516Z" fill="white"/>
<path d="M158.55 70.0106H156C155.86 69.2406 155.4 68.7206 154.32 68.7206C153.42 68.7206 152.84 69.0706 152.84 69.7206C152.84 70.3006 153.26 70.5606 154.07 70.7206L155.49 71.0206C157.37 71.4106 158.57 72.1706 158.57 73.9306C158.57 75.9706 156.89 77.2306 154.34 77.2306C152.05 77.2306 149.97 76.1406 149.73 73.6206H152.28C152.45 74.5206 153.21 75.0906 154.41 75.0906C155.31 75.0906 155.85 74.7406 155.85 74.1706C155.85 73.8106 155.65 73.4306 154.77 73.2706L153.09 72.9106C151.08 72.4706 150.13 71.5606 150.13 69.9406C150.13 67.9006 151.78 66.6406 154.18 66.6406C155.83 66.6506 158.29 67.2706 158.55 70.0106Z" fill="white"/>
<path d="M164.201 76.9403C163.681 76.7103 163.421 76.3203 163.421 75.8603C163.421 75.1403 164.021 74.5703 164.771 74.5703C165.521 74.5703 166.121 75.1403 166.121 75.8603C166.121 76.1903 166.111 76.3703 165.671 77.1103L164.771 78.6103H163.421L164.201 76.9403Z" fill="white"/>
<path d="M186.36 74.7816V77.0516H178.78V66.8516H181.31V74.7816H186.36Z" fill="white"/>
<path d="M198.881 74.7816V77.0516H191.311V66.8516H193.841V74.7816H198.881Z" fill="white"/>
<path d="M210.001 72.8202H212.611C212.281 75.4602 210.271 77.2402 207.491 77.2402C204.421 77.2402 202.091 75.0202 202.091 71.9502C202.091 68.8702 204.421 66.6602 207.491 66.6602C210.271 66.6602 212.281 68.4402 212.611 71.0802H210.001C209.731 69.8102 208.831 69.0202 207.481 69.0202C205.811 69.0202 204.661 70.2502 204.661 71.9502C204.661 73.6402 205.821 74.8702 207.481 74.8702C208.831 74.8702 209.731 74.0902 210.001 72.8202Z" fill="white"/>
</svg>
