<svg xmlns="http://www.w3.org/2000/svg" width="45" height="101" viewBox="0 0 45 101"><g transform="translate(7209 -4164) rotate(90)"><rect width="98" height="43" rx="21.5" transform="translate(4164 7165)" fill="#373737"/><g transform="translate(4035 6226)"><circle cx="22.5" cy="22.5" r="22.5" transform="translate(185 938)" fill="#6b98d6"/><path d="M29.7,28.465a11.256,11.256,0,1,1-11.71-18.54,1.409,1.409,0,0,1,1.8,1.8A8.389,8.389,0,0,0,30.525,22.464a1.407,1.407,0,0,1,1.794,1.8A11.113,11.113,0,0,1,29.7,28.465ZM15.77,14.536A8.44,8.44,0,1,0,28.345,25.757,11.2,11.2,0,0,1,16.488,13.9a7.919,7.919,0,0,0-.718.634Z" transform="translate(177.628 960.954) rotate(-45)"/></g></g></svg>