<svg xmlns="http://www.w3.org/2000/svg" width="45" height="45" viewBox="0 0 45 45"><g transform="translate(-123 -938)"><circle cx="22.5" cy="22.5" r="22.5" transform="translate(123 938)" fill="#fdbf0a"/><g transform="translate(131.223 946.223)"><path d="M22.115,16.308A5.808,5.808,0,1,1,16.308,10.5a5.808,5.808,0,0,1,5.808,5.808Z" transform="translate(-2.031 -2.031)" fill="none" stroke="#000" stroke-linecap="round" stroke-linejoin="round" stroke-width="3"/><path d="M18,1.5V3.823" transform="translate(-3.723)" fill="none" stroke="#000" stroke-linecap="round" stroke-linejoin="round" stroke-width="3"/><path d="M18,31.5v2.323" transform="translate(-3.723 -6.769)" fill="none" stroke="#000" stroke-linecap="round" stroke-linejoin="round" stroke-width="3"/><path d="M6.33,6.33,7.979,7.979" transform="translate(-1.09 -1.09)" fill="none" stroke="#000" stroke-linecap="round" stroke-linejoin="round" stroke-width="3"/><path d="M27.54,27.54l1.649,1.649" transform="translate(-5.876 -5.876)" fill="none" stroke="#000" stroke-linecap="round" stroke-linejoin="round" stroke-width="3"/><path d="M1.5,18H3.823" transform="translate(0 -3.723)" fill="none" stroke="#000" stroke-linecap="round" stroke-linejoin="round" stroke-width="3"/><path d="M31.5,18h2.323" transform="translate(-6.769 -3.723)" fill="none" stroke="#000" stroke-linecap="round" stroke-linejoin="round" stroke-width="3"/><path d="M6.33,29.189,7.979,27.54" transform="translate(-1.09 -5.876)" fill="none" stroke="#000" stroke-linecap="round" stroke-linejoin="round" stroke-width="3"/><path d="M27.54,7.979,29.189,6.33" transform="translate(-5.876 -1.09)" fill="none" stroke="#000" stroke-linecap="round" stroke-linejoin="round" stroke-width="3"/></g></g></svg>