<svg xmlns="http://www.w3.org/2000/svg" width="1174.068" height="215.636" viewBox="0 0 1174.068 215.636"><path d="M333.371,186.934c-23.912,0-43.535-21.491-45.531-23.7,2.124-3.738,29.434-52.964,29.434-103.252,0-16.31-4.375-31.26-12.36-42.176C296.419,6.169,284.612.01,270.85.01s-25.526,6.159-34.063,17.8c-7.985,10.916-12.36,25.866-12.36,42.176,0,50.416,27.395,99.727,29.391,103.295-1.656,2.209-18.136,23.7-42.091,23.7s-40.392-21.491-42.049-23.7c2.039-3.568,29.434-52.879,29.434-103.295,0-16.31-4.375-31.26-12.36-42.176C178.259,6.169,166.452.01,152.69.01s-25.569,6.159-34.063,17.8c-7.985,10.916-12.36,25.866-12.36,42.176,0,50.331,27.31,99.514,29.434,103.252-2,2.251-21.619,23.7-45.531,23.7h-.34v26.758h.425c27.183,0,50.033-15.248,62.52-29.646,17.924,19.665,37.8,29.646,59.08,29.646s41.114-9.981,59.037-29.646c12.487,14.4,35.338,29.646,62.52,29.646h.34V187.316l.043-.34h-.34ZM270.808,27.7c13.719,0,18.688,19.283,18.688,32.237,0,29.561-11.553,59.59-18.688,75.3-7.136-15.715-18.688-45.744-18.688-75.3,0-12.954,4.969-32.237,18.688-32.237M171.379,59.94c0,29.561-11.553,59.59-18.688,75.3C145.555,119.529,134,89.5,134,59.94,134,46.985,138.972,27.7,152.69,27.7s18.688,19.283,18.688,32.237" transform="translate(299.287 -0.01)" fill="#231f20"/><path d="M214.489,17.92,165.56,154H139.227L107.372,59.629,75.262,154H48.929L0,17.92H32.407l29.519,90.892L94.375,17.92h25.739l32.449,90.638L182.082,17.92Z" transform="translate(0 58.149)" fill="#231f20"/><path d="M190.553,97.554H83.733c2.888,20.557,15.927,36.187,41.411,36.187,13.294,0,23.445-4.035,28.967-12.742h33c-8.665,24.592-32.7,39.075-62.223,39.075-42.855,0-71.78-30.963-71.78-71.482S81.779,17.11,123.148,17.11c45.149,0,73.224,34.446,67.447,80.487M84.37,76.742h76.409c-1.741-22.3-16.225-34.148-37.334-34.148-22.6,0-35.593,15.035-39.075,34.148" transform="translate(176.481 55.519)" fill="#231f20"/><path d="M292.712,20.518V156.6H262.9V145.9c-11.595,8.962-26.333,14.186-43.7,14.186-38.226,0-68.891-31.855-68.891-71.482S180.965,17.12,219.191,17.12c17.371,0,32.152,5.224,43.7,14.186V20.6h29.816ZM262.9,113.152V63.925C252.745,49.442,238.559,44.26,223.524,44.26c-24.889,0-43.11,19.962-43.11,44.3s18.221,44.3,43.11,44.3c15.035,0,29.221-5.224,39.372-19.665" transform="translate(499.484 55.551)" fill="#231f20"/><path d="M335.22,138.758c0,39.967-30.963,71.779-69.189,71.779-17.371,0-32.152-5.224-43.407-14.186v10.7H192.51V1.57h30.113V81.462c11.3-8.664,26.036-13.889,43.407-13.889,38.226,0,69.189,31.855,69.189,71.227m-30.113,0c0-24.04-18.221-44-43.407-44-15.036,0-28.967,4.927-39.075,19.113v50.076c10.151,14.186,24.04,19.41,39.075,19.41,25.186,0,43.407-20.26,43.407-44.6" transform="translate(639.762 5.056)" fill="#231f20"/><path d="M367.753,97.554H260.933c2.888,20.557,15.927,36.187,41.411,36.187,13.337,0,23.445-4.035,28.967-12.742h33c-8.664,24.592-32.7,39.075-62.223,39.075-42.855,0-71.78-30.963-71.78-71.482S258.979,17.11,300.348,17.11c45.149,0,73.224,34.446,67.447,80.487M261.57,76.742h76.409c-1.741-22.3-16.225-34.148-37.334-34.148-22.6,0-35.592,15.035-39.075,34.148" transform="translate(766.009 55.519)" fill="#231f20"/><path d="M300.087,35.639c0,10.151-8.282,17.711-18.221,17.711S263.56,45.79,263.56,35.639,271.842,17.8,281.866,17.8s18.221,7.645,18.221,17.839m-4.375,0a13.889,13.889,0,0,0-27.778,0A13.8,13.8,0,0,0,281.781,49.4a13.987,13.987,0,0,0,13.931-13.761M285.433,37.72l4.078,5.394h-4.078l-3.568-4.969h-2.718v4.969h-3.271V27.1h6.8c3.653,0,6.286,2.209,6.286,5.649a5.163,5.163,0,0,1-3.568,4.969m-6.286-2.463h3.568c1.784,0,2.973-1.019,2.973-2.591s-1.189-2.506-2.973-2.506h-3.568Z" transform="translate(873.982 57.76)" fill="#231f20"/></svg>