<?xml version="1.0" encoding="utf-8"?>
<!-- Generator: Adobe Illustrator 25.2.0, SVG Export Plug-In . SVG Version: 6.00 Build 0)  -->
<svg version="1.1" id="Layer_1" xmlns="http://www.w3.org/2000/svg" xmlns:xlink="http://www.w3.org/1999/xlink" x="0px" y="0px"
	 viewBox="0 0 319.88 314.21" style="enable-background:new 0 0 319.88 314.21;" xml:space="preserve">
<style type="text/css">
	.st0{fill:#E24752;}
	.st1{fill:#FFFFFF;}
	.st2{fill:none;}
	.st3{fill:none;stroke:#FFFFFF;stroke-width:0.75;stroke-miterlimit:10;}
	.st4{fill:#FFFFFF;stroke:#FFFFFF;stroke-miterlimit:10;}
	.st5{fill:#FFFFFF;stroke:#FFFFFF;stroke-width:0.5;stroke-miterlimit:10;}
	.st6{fill:none;stroke:#000000;stroke-width:0.75;stroke-miterlimit:10;}
	.st7{stroke:#000000;stroke-miterlimit:10;}
	.st8{stroke:#000000;stroke-width:0.5;stroke-miterlimit:10;}
</style>
<g>
	<path class="st1" d="M123.91,97.83c4.01-0.46,7.79-0.83,11.55-1.38c0.62-0.09,1.51-0.97,1.59-1.58c0.47-3.43,0.88-6.87,1.02-10.33
		c0.12-2.78,0.13-5.64-0.43-8.34c-0.23-1.1-2.09-1.9-3.28-2.73c-1.74-1.22-3.54-2.35-5.3-3.54c-0.15-0.1-0.21-0.32-0.31-0.48
		c0.18,0.04,0.35,0.06,0.53,0.11c2.72,0.83,5.43,1.66,8.15,2.46c0.08,0.02,0.36-0.23,0.36-0.35c-0.13-2.31-0.2-4.62-0.46-6.92
		c-0.31-2.73-0.86-5.43-1.19-8.16c-0.31-2.56-0.63-5.13-0.64-7.7c0-2.45,0.2-4.95,0.68-7.35c0.56-2.82,1.7-5.53,2.21-8.35
		c0.16-0.86-0.82-2.01-1.44-2.92c-1.17-1.74-2.47-3.39-3.7-5.09c-0.31-0.43-0.54-0.92-0.7-1.49c1.13,1.3,2.24,2.63,3.41,3.9
		c1.05,1.14,2.17,2.23,3.27,3.32c0.06,0.06,0.29,0.03,0.38-0.04c1.39-0.93,2.76-1.88,4.16-2.8c1.97-1.3,4.09-1.19,6.28-0.65
		c3.21,0.8,5.34,2.72,7.07,5.56c2.04,3.34,2.05,7.03,2.52,10.61c0.35,2.67-0.17,5.43-0.02,8.14c0.06,1.05,0.71,2.17,1.36,3.06
		c1.04,1.41,2.29,2.67,3.47,3.97c1.17,1.29,2.37,2.55,3.59,3.79c0.13,0.13,0.59,0.06,0.81-0.07c1.73-1.06,3.46-2.11,5.11-3.27
		c0.36-0.25,0.68-1.02,0.57-1.42c-1.48-5.08-3.07-10.13-4.58-15.2c-1.28-4.27-2.52-8.56-3.73-12.85c-0.33-1.18-0.52-2.39-0.76-3.6
		c-0.03-0.16,0.05-0.34,0.09-0.52c0.07,0.05,0.16,0.08,0.19,0.14c0.75,1.49,1.49,2.99,2.26,4.48c1.21,2.32,2.36,4.68,3.67,6.94
		c1.43,2.47,3.09,4.8,4.5,7.28c1.25,2.19,2.25,4.53,3.43,6.76c0.78,1.47,1.65,2.9,2.58,4.29c0.2,0.3,0.79,0.41,1.22,0.45
		c0.18,0.02,0.56-0.36,0.58-0.59c0.21-2.01,0.37-4.03,0.54-6.05c0.12-1.41,0.3-2.82,0.3-4.23c0-3.14-0.1-6.27-0.15-9.41
		c0-0.2,0.07-0.4,0.11-0.59c0.07,0.16,0.17,0.31,0.22,0.47c0.89,2.75,1.83,5.49,2.65,8.26c0.97,3.24,1.8,6.51,2.79,9.74
		c0.13,0.41,0.93,0.96,1.28,0.88c0.72-0.18,1.59-0.6,1.95-1.19c1.03-1.69,1.88-3.5,2.71-5.31c2.08-4.55,4.09-9.13,6.16-13.68
		c1.41-3.1,2.85-6.19,4.33-9.27c1.9-3.97,3.85-7.93,5.78-11.89c0.1-0.19,0.27-0.35,0.41-0.52c0.02,0.24,0.11,0.5,0.05,0.71
		c-0.96,3.41-2.04,6.8-2.9,10.23c-0.97,3.83-1.73,7.7-2.62,11.55c-0.93,4-1.86,8-2.86,11.98c-0.65,2.58-1.44,5.13-2.11,7.7
		c-0.05,0.2,0.31,0.64,0.57,0.76c1.9,0.86,3.04-0.55,4.33-1.52c2.9-2.19,5.83-4.33,8.68-6.57c4.36-3.43,8.67-6.92,13-10.38
		c0.13-0.11,0.29-0.19,0.44-0.28c-0.05,0.17-0.07,0.38-0.17,0.51c-2.69,3.48-5.39,6.96-8.09,10.44c-2.49,3.22-4.99,6.45-7.47,9.69
		c-1.41,1.84-1.3,2.6,0.61,3.84c0.31,0.2,0.92,0.17,1.29,0.01c2.26-0.93,4.48-1.93,6.73-2.9c4.26-1.83,8.53-3.62,12.77-5.48
		c5.21-2.28,10.39-4.62,15.58-6.94c0.36-0.16,0.73-0.32,1.1-0.47c-0.29,0.29-0.57,0.61-0.89,0.87c-2.64,2.09-5.3,4.14-7.92,6.26
		c-2.46,1.99-4.82,4.12-7.31,6.07c-2.81,2.21-5.75,4.26-8.58,6.44c-1.4,1.08-2.67,2.33-4.02,3.49c-0.71,0.62-0.87,1.01-0.1,1.91
		c0.99,1.16,1.55,2.68,2.26,4.07c0.5,0.97,0.7,2.31,1.47,2.88c0.82,0.6,2.2,0.73,3.29,0.61c4.28-0.45,8.54-1.06,12.8-1.62
		c1.91-0.25,3.82-0.52,5.74-0.76c0.19-0.02,0.39,0.07,0.58,0.11c-0.11,0.15-0.18,0.35-0.33,0.43c-3.15,1.77-6.29,3.57-9.48,5.28
		c-2.75,1.47-5.55,2.83-8.34,4.22c-0.89,0.44-1.37,4.02-0.58,4.99c0.83,1.02,2.78,1.61,4.55,2.35c2.83,1.19,5.83,1.97,8.76,2.89
		c2.66,0.83,5.33,1.61,8,2.4c3.04,0.91,6.09,1.81,9.13,2.72c0.91,0.27,1.82,0.55,2.71,0.86c0.18,0.06,0.31,0.27,0.47,0.42
		c-0.18,0.02-0.37,0.08-0.55,0.06c-3.04-0.4-6.07-0.86-9.12-1.2c-2.56-0.29-5.14-0.41-7.71-0.66c-3.75-0.36-7.5-0.77-11.25-1.16
		c-1.22-0.13-2.47-0.12-3.66-0.38c-2.25-0.48-2.1,1.09-2.26,2.44c0,0.03,0,0.06,0,0.08c-0.15,1.06-0.8,2.69-0.36,3.06
		c1.19,1.01,2.82,1.53,4.3,2.19c4.35,1.93,8.69,3.88,13.09,5.71c2.09,0.87,4.32,1.41,6.43,2.24c1.89,0.74,3.71,1.67,5.55,2.53
		c0.06,0.03,0.08,0.16,0.12,0.25c-0.19,0.02-0.4,0.09-0.57,0.05c-2.05-0.49-4.08-1.06-6.15-1.5c-2.58-0.56-5.17-1.05-7.77-1.51
		c-2.82-0.5-5.66-0.92-8.49-1.41c-2.92-0.51-5.83-1.15-8.77-1.52c-0.44-0.06-1.1,1.04-1.55,1.68c-1.82,2.55-3.52,5.19-5.41,7.69
		c-1.07,1.42-0.81,2.36,0.26,3.68c1.59,1.96,2.86,4.19,4.26,6.3c1.76,2.66,3.49,5.34,5.26,8c1.69,2.54,3.39,5.06,5.11,7.58
		c1.2,1.76,2.45,3.48,3.68,5.22c0.05,0.08,0.06,0.19,0.09,0.28c-0.1-0.06-0.22-0.1-0.31-0.19c-1.81-1.8-3.6-3.63-5.43-5.42
		c-3.05-2.97-6.15-5.91-9.2-8.88c-2.34-2.29-4.61-4.65-6.96-6.92c-1.1-1.07-2.31-2.02-3.48-3c-0.11-0.09-0.35-0.15-0.45-0.09
		c-1.99,1.11-3.9,2.4-5.97,3.32c-2.49,1.11-3.07,2.05-2.54,4.92c0.76,4.14,1.46,8.28,2.2,12.42c0.12,0.65,0.35,1.27,0.5,1.91
		c0.06,0.26,0.02,0.54,0.03,0.81c-0.23-0.19-0.56-0.34-0.67-0.58c-1.77-3.99-3.5-8.01-5.29-12c-0.63-1.39-1.35-2.75-2.14-4.06
		c-0.11-0.19-0.82-0.07-1.24-0.02c-1.81,0.21-3.63,0.35-5.4,0.74c-0.47,0.1-0.95,0.98-1.09,1.58c-0.81,3.33-1.47,6.69-2.26,10.03
		c-0.76,3.2-1.62,6.38-2.43,9.56c-0.14,0.55-0.25,1.1-0.38,1.65c-0.16-0.55-0.4-1.09-0.45-1.65c-0.28-2.81-0.5-5.63-0.77-8.45
		c-0.39-4.05-0.73-8.11-1.28-12.14c-0.06-0.47-1.3-0.8-2.02-1.16c-3.08-1.56-3.72,1.48-5.14,2.85c-1.85,1.81-3.48,3.86-5.2,5.8
		c-0.49,0.55-0.97,1.11-1.47,1.65c-0.09,0.1-0.26,0.12-0.39,0.17c0-0.14-0.03-0.29,0-0.42c0.88-4.07,1.8-8.13,2.62-12.21
		c0.08-0.41-0.31-1.02-0.65-1.37c-0.41-0.42-0.97-0.8-1.53-0.93c-0.55-0.13-1.33-0.14-1.75,0.16c-2.8,1.94-5.53,4-8.31,5.97
		c-1.83,1.3-3.71,2.54-5.58,3.79c-0.17,0.11-0.39,0.14-0.59,0.21c0.07-0.22,0.1-0.46,0.21-0.65c2.66-4.25,5.35-8.47,7.95-12.75
		c0.35-0.58,0.55-1.72,0.23-2.17c-1.16-1.62-2.1,0.13-3.02,0.54c-2.32,1.03-4.55,2.26-6.78,3.47c-0.7,0.38-1.38,0.86-1.91,1.45
		c-2.73,3.06-5.24,6.34-8.15,9.22c-2.5,2.48-5.16,5.04-8.23,6.63c-4.71,2.43-14.95,6.12-15.02,6.1c-2.8,0.95-2.74,1.36-2.93,3.11
		c-0.02,0.15,0.53,0.55,0.77,0.52c4.52-0.58,9.03-1.15,13.48,0.43c4.41,1.57,8.21,3.98,11.12,7.72c0.19,0.25,1.14,0.26,1.45,0.01
		c2.45-1.95,4.57-4.52,7.3-5.87c5.09-2.52,10.23-3.5,15.82,1.57c2.41,2.19,3.99,5.03,3.96,8.45c-0.02,2.31,0.13,4.71-0.41,6.92
		c-0.64,2.62-1.95,5.07-2.95,7.6c-0.29,0.73-0.74,1.38,0.56,1.81c1.64,0.54,3.2,1.37,4.75,2.17c2.76,1.42,5.58,2.76,8.2,4.41
		c3.05,1.92,6.04,3.98,8.16,7.02c1.11,1.59,2.3,3.12,3.33,4.75c0.28,0.45,0.04,1.2,0.15,1.8c0.07,0.41,0.24,0.86,0.5,1.18
		c1.11,1.37,2.33,2.65,3.37,4.07c0.29,0.4,0.32,1.25,0.1,1.71c-1.09,2.27-0.27,4.35,0.37,6.5c0.56,1.87,0.7,3.72-1.09,5.14
		c-1.11,0.88-2.18,1.8-3.24,2.74c-0.24,0.22-0.54,0.82-0.5,0.84c0.46,0.34,0.96,0.64,1.46,0.91c2.24,1.21,4.65,2.17,6.69,3.65
		c4.18,3.02,5.77,7.86,8.02,12.23c1.57,3.05,3.21,6.07,4.8,9.11c1.63,3.11,3.21,6.25,4.85,9.35c1.5,2.84,3.05,5.65,4.57,8.48
		c0.65,1.22-0.71,4.65-2.09,5.26c-2.61,1.14-5.34,2.08-7.81,3.46c-2.38,1.34-2.32,3.26,0.11,5.63c1.93,1.89,4.33,1.76,6.61,1.8
		c2.88,0.05,5.12,1.58,7.57,2.65c0.23,0.1,0.49,0.7,0.39,0.88c-0.35,0.68-0.74,1.68-1.32,1.84c-2.83,0.77-5.7,1.54-8.61,1.87
		c-2.46,0.28-5.02-0.28-7.49-0.04c-3.08,0.3-6.1,1.15-9.18,1.58c-3.45,0.48-6.82-0.4-7.73-4.67c-0.26-1.23-1.82-2.53-3.1-3.13
		c-3.09-1.44-5.86,0.5-8.75,1.3c-1.79,0.49-3.75,0.72-5.57,0.51c-0.71-0.08-1.73-1.72-1.74-2.65c-0.01-2.37,0.46-4.74,0.76-7.11
		c0.26-2.03,0.77-4.05,0.77-6.08c0-2.72-0.38-5.44-0.63-8.15c-0.03-0.32-0.25-0.63-0.38-0.95c-0.23,0.2-0.52,0.36-0.68,0.6
		c-1.75,2.79-3.32,5.71-5.26,8.36c-2.04,2.78-4.35,5.37-6.68,7.92c-1.79,1.96-3.67,3.86-5.72,5.53c-3.14,2.57-6.65,4.59-10.8,4.99
		c-3.12,0.3-6.31,0.74-9.39,0.42c-2.68-0.28-5.25-1.56-7.87-2.38c-0.33-0.1-0.69-0.11-1.04-0.16c0.2,0.23,0.36,0.49,0.59,0.68
		c2.66,2.21,5.79,3.37,9.14,3.99c2.2,0.41,4.39,1.06,6.6,1.09c2.04,0.03,4.12-0.51,6.12-1c1.43-0.35,2.78-1.01,4.14-1.61
		c0.77-0.34,1.51-0.79,2.19-1.29c1.57-1.16,3.24-2.25,4.6-3.63c1.64-1.67,3.06-3.58,4.45-5.47c0.89-1.21,4.13-2.42,5.16-1.43
		c0.54,0.52,0.55,1.93,0.35,2.84c-0.85,4.01,3.05,8.29,7.03,7.46c2.6-0.55,5.12-1.5,7.73-2.01c1.01-0.19,2.58,0,3.13,0.66
		c0.65,0.78,0.4,2.27,0.69,3.42c0.24,0.92,0.47,2.17,1.14,2.58c1,0.63,2.39,0.96,3.58,0.88c4.47-0.31,8.91-0.94,13.37-1.27
		c4.01-0.3,8.04-0.26,12.04-0.56c3.01-0.23,6.05-0.54,8.97-1.25c1.19-0.29,2.72-1.62,2.94-2.71c0.21-1.05-0.88-2.57-1.76-3.56
		c-1.57-1.76-3.94-1.86-6.04-1.81c-3.01,0.08-5.39-0.61-7.04-3.27c-0.56-0.9,0.35-3.37,1.48-3.72c3.68-1.13,7.42-1.72,11.27-1.52
		c2,0.11,4.22,0.83,5.96,0.2c2.68-0.97,5.02,0.12,7.5,0.2c1.15,0.04,2.26,0.91,3.44,1.08c1.13,0.16,2.37,0.1,3.48-0.2
		c5.38-1.42,10.8-1.16,16.26-0.66c2.4,0.22,4.89,0.18,7.27-0.2c1.75-0.28,3.75-0.84,4.15-3.15c0.04-0.25-0.06-0.52-0.08-0.78
		c-0.11-1.35-0.35-2.71-0.3-4.05c0.04-0.99,2.14-1.34,3.03-0.58c0.61,0.52,1.18,1.11,1.86,1.49c2.09,1.17,2.36-1.12,3.07-1.95
		c3.41-4.02,5.74-8.74,7.81-13.55c0.75-1.75,0.97-3.72,1.57-5.55c0.27-0.83,0.79-1.62,1.39-2.24c0.12-0.13,1.22,0.48,1.68,0.93
		c0.72,0.73,1.46,1.54,1.84,2.46c0.18,0.42-0.42,1.2-0.74,1.78c-0.76,1.38-1.53,2.77-2.36,4.11c-1.27,2.05-2.65,4.02-3.85,6.11
		c-0.43,0.74-0.54,1.69-0.67,2.57c-0.18,1.2,0.02,2.54-0.43,3.61c-0.51,1.22-1.88,2.1-2.31,3.32c-0.44,1.28-0.21,2.79-0.23,4.2
		c0,0.1,0.34,0.21,0.52,0.32c0.08-0.2,0.15-0.4,0.24-0.59c0.3-0.63,0.48-1.38,0.93-1.87c1.43-1.57,2.88-3.15,4.49-4.53
		c0.8-0.69,1.94-1.01,2.97-1.35c0.24-0.08,1.01,0.54,0.98,0.69c-0.12,0.48,0.92,1.03-0.43,1.59c-1.61,0.67-3,2.11-4.17,3.49
		c-1,1.17-1.56,2.71-2.3,4.1c-0.09,0.18-0.18,0.53-0.1,0.59c0.23,0.18,0.54,0.37,0.82,0.36c2.55-0.01,5.11-0.11,7.66-0.07
		c1.78,0.02,3.55,0.29,5.33,0.31c3.09,0.03,5.53,1.35,7.65,3.49c0.65,0.66,1.53,1.08,2.19,1.72c0.67,0.64,1.69,1.43,1.66,2.13
		c-0.02,0.67-1.1,1.65-1.88,1.86c-1.9,0.51-3.9,0.66-5.87,0.92c-0.88,0.12-1.78,0.17-2.67,0.22c-5.11,0.31-10.21,0.67-15.32,0.9
		c-2.81,0.13-5.65-0.12-8.45,0.11c-2.85,0.24-5.73,0.66-8.5,1.36c-3.14,0.8-6.15,2.1-9.27,3c-1.13,0.33-2.41,0.16-3.62,0.18
		c-2.54,0.05-5.1,0-7.63,0.19c-0.59,0.04-1.11,0.86-1.68,1.31c-1.12,0.89-2.13,2.05-3.4,2.59c-2.46,1.03-5.02,1.91-7.62,2.47
		c-3.28,0.7-6.63,1.11-9.97,1.47c-4.49,0.49-8.99,0.83-13.49,1.18c-2.28,0.18-4.58,0.39-6.86,0.33c-3.56-0.1-7.11-0.51-10.67-0.62
		c-6.01-0.19-12.01-0.25-18.02-0.35c-1.15-0.02-2.3-0.05-3.44,0.01c-4.14,0.2-8.28,0.45-12.42,0.64c-1.52,0.07-3.05-0.08-4.57,0.03
		c-3.78,0.28-7.55,0.88-11.32,0.92c-2.43,0.03-4.86-0.87-7.32-1.06c-3-0.23-5.33,1.37-7.84,2.9c-2.52,1.53-5.65,2.09-8.56,2.92
		c-1.2,0.34-2.56,0.47-3.79,0.31c-1.1-0.14-2.5-0.53-3.12-1.31c-2.32-2.96-7.85-2.51-10.46-1.08c-1.57,0.86-3.51,1.15-5.33,1.41
		c-4.86,0.7-9.63-0.31-14.21-1.6c-3.66-1.03-7.06-2.97-10.54-4.61c-0.72-0.34-1.28-1.07-1.85-1.67c-2.34-2.47-5.26-3.36-8.58-3.58
		c-4.71-0.31-8.8,1.27-12.74,3.56c-1.81,1.05-4.76,0.62-6.26-0.92c-1.14-1.17-2.19-2.42-3.3-3.62c-1.58-1.68-3.04-1.8-5.37-0.53
		c-2.11,1.14-4.17,2.48-6.42,3.25c-1.01,0.34-2.74-0.12-3.57-0.86c-1.68-1.49-4.07-2.13-6.13-1.12c-4.39,2.15-9.06,3.21-13.91,2.53
		c-1.31-0.18-2.47-1.63-3.62-2.59c-0.11-0.09,0.23-0.93,0.54-1.26c1.89-2.09,4.2-2.13,6.89-1.89c2.94,0.26,5.98-0.21,8.95-0.6
		c2.99-0.39,5.92-1.19,8.91-1.58c2.35-0.31,4.74-0.43,7.11-0.34c1.87,0.07,3.73,0.86,5.58,0.82c1.41-0.03,2.85-0.75,4.19-1.34
		c2-0.88,3.84-2.24,5.91-2.83c3.16-0.9,6.43-1.53,9.7-1.87c3.84-0.39,7.72-0.41,11.58-0.46c1.27-0.02,2.55,0.38,3.83,0.57
		c0.14,0.02,0.28-0.03,0.42-0.05c-0.11-0.1-0.19-0.23-0.32-0.3c-2.39-1.26-4.35-2.9-5.03-5.66c-0.79-3.23-0.71-6.38,0.38-9.62
		c0.71-2.11,0.71-4.47,0.99-6.72c0.63-5.04,1.28-10.07,1.83-15.12c0.37-3.42,0.63-6.85,0.86-10.28c0.22-3.31,0.35-6.63,0.52-9.95
		c0.17-3.37,0.39-6.75,0.5-10.12c0.21-6.69,0.4-13.38,0.5-20.07c0.05-3.63-0.11-7.26-0.14-10.88c-0.03-3.36,0.02-6.71-0.01-10.07
		c-0.02-2.52-0.06-5.05-0.19-7.57c-0.04-0.87-0.36-1.73-0.56-2.6c-0.64,0.52-1.29,1.03-1.92,1.56c-2.98,2.55-5.68,5.54-9,7.52
		c-2.88,1.71-6.39,2.47-9.71,3.3c-4.46,1.11-8.13-0.69-11.65-3.42c-3.55-2.75-6.01-6.28-7.95-10.12c-1.05-2.07-1.26-4.66-1.46-7.05
		c-0.47-5.6-0.87-11.21-1-16.82c-0.08-3.55,0.49-7.1,0.58-10.66c0.08-3.53-0.14-7.07-0.1-10.6c0.02-1.8,0.43-3.59,0.45-5.38
		c0.04-2.92-0.16-5.85-0.12-8.77c0.05-4.23,0.26-8.45,0.3-12.68c0.04-4.72,1.62-8.96,4.09-12.84c2.68-4.21,9.32-6.19,13.94-4.36
		c1.46,0.58,2.45,1.58,3.19,3.19c2.07,4.55,2.39,9.38,2.32,14.17c-0.11,8.06-0.92,16.11-1.03,24.17
		c-0.08,5.69,0.68,11.38,0.68,17.07c0,2.31,0.4,4.37,1.52,6.24c0.61,1.02,1.84,2.35,2.77,2.34c1.42-0.03,3.36-0.72,4.13-1.8
		c1.68-2.39,3.08-5.1,4-7.87c0.89-2.71,1.12-5.65,1.48-8.51c0.53-4.22,0.96-8.45,1.34-12.69c0.22-2.41,0.25-4.84,0.37-7.26
		c0.34-6.84,0.5-13.7,1.07-20.52c0.42-4.95,1.47-9.84,2.08-14.78c0.63-5.08,1.12-10.17,1.54-15.27c0.29-3.41,0.32-6.85,0.54-10.27
		c0.36-5.59,0.65-11.2,1.21-16.77c0.39-3.9,0.82-7.87,1.91-11.61c1.25-4.3,3.47-8.31,7.41-10.82c3.22-2.05,6.94-2.05,10.52-1.15
		c3.92,0.99,8.11,8.29,8.17,9.66c0.06,0.13,0.96,3.71,1.37,5.59c0.29,1.37,0.39,2.78,0.59,4.17c0.38,2.69,0.83,5.37,1.14,8.07
		c0.26,2.21,0.42,4.43,0.53,6.65c0.21,4.39,0.34,8.78,0.52,13.17c0.1,2.54,0.23,5.07,0.33,7.61c0.12,2.72,0.33,5.44,0.31,8.16
		c-0.02,2.24-0.38,4.47-0.46,6.71c-0.21,5.82-0.4,11.64-0.5,17.46c-0.04,2.23,0.49,4.5,0.24,6.69c-0.35,3.04,0.25,5.83,1.27,8.58
		c1.17,3.15,4.9,6.43,9.24,5.01c3.08-1.01,5.21-2.95,6.92-5.23c1.48-1.98,2.11-4.61,2.97-7.01c0.09-0.26-0.72-1.18-1.22-1.27
		C130.71,98.82,127.42,98.36,123.91,97.83z M103.82,38.99c0.16-3.31-1.19-5.83-3.8-7.78c-2.09-1.56-4.25-1.62-5.9-0.42
		c-2.8,2.04-3.69,5.14-4.11,8.16c-0.61,4.42-0.52,8.95-0.79,13.42c-0.24,3.93-0.55,7.87-0.84,11.8c-0.17,2.3-0.29,4.61-0.51,6.9
		c-0.3,3.11-0.75,6.2-0.98,9.31c-0.26,3.47-0.35,6.96-0.53,10.44c-0.15,2.88-0.29,5.76-0.47,8.64c-0.22,3.58-0.5,7.16-0.68,10.74
		c-0.13,2.51-0.04,5.03-0.22,7.53c-0.24,3.28-0.58,6.55-1.02,9.8c-0.27,1.97-0.63,3.97-1.26,5.85c-0.95,2.84-2.09,5.61-3.29,8.35
		c-0.67,1.54-1.43,3.08-2.45,4.39c-0.87,1.11-2.23,1.83-3.26,2.84c-2.45,2.4-7.21,3.17-10.4,1.9c-2.46-0.99-4.46-2.46-6.17-4.43
		c-0.13-0.15-1.03,0.1-1.04,0.17c-0.01,2.6-0.16,5.23,0.16,7.8c0.18,1.47,1.04,2.89,1.77,4.24c0.6,1.11,1.28,2.32,2.25,3.07
		c1.18,0.91,2.64,1.56,4.07,2c1.61,0.49,3.39,1.02,5,0.82c2.11-0.27,4.45-0.79,6.1-2c2.87-2.11,5.23-4.91,7.94-7.26
		c0.66-0.57,2.14-0.97,2.75-0.61c0.63,0.38,0.93,1.77,0.9,2.71c-0.07,1.92-0.58,3.81-0.68,5.73c-0.13,2.49-0.01,4.99-0.04,7.48
		c-0.03,3.18-0.09,6.35-0.17,9.53c-0.09,3.38-0.3,6.77-0.31,10.15c-0.01,2.91,0.28,5.81,0.29,8.72c0.02,4.49-0.07,8.98-0.16,13.47
		c-0.05,2.32-0.19,4.63-0.31,6.94c-0.17,3.39-0.41,6.79-0.5,10.18c-0.06,2.46,0.22,4.94,0.12,7.4c-0.26,6.03-0.64,12.06-0.99,18.09
		c-0.16,2.75-0.41,5.49-0.46,8.24c-0.01,0.77,0.57,1.55,0.88,2.32c0.81-0.53,1.89-0.9,2.38-1.64c0.58-0.9,0.47-2.22,0.99-3.18
		c2.27-4.2,2.37-8.87,3.12-13.4c1-6.04,1.88-12.1,3.09-18.09c0.77-3.81,1.97-7.55,3.13-11.27c0.83-2.68,2.24-5.19,1.74-8.18
		c-0.18-1.06,0.02-2.18,0.07-3.28c0.12-2.47,0.4-4.95,0.34-7.42c-0.1-4.26-0.52-8.51-0.58-12.76c-0.04-3,0.39-6,0.43-9
		c0.02-1.93-0.42-3.87-0.44-5.81c-0.04-3.26,0.04-6.52,0.16-9.78c0.09-2.54,0.46-5.08,0.47-7.62c0.02-3.67-0.15-7.34-0.27-11
		c-0.1-2.92-0.47-5.86-0.31-8.76c0.23-4.13,0.91-8.24,1.24-12.37c0.29-3.56,0.42-7.14,0.52-10.71c0.12-4.44,0.06-8.89,0.21-13.33
		c0.08-2.45,0.49-4.88,0.62-7.33c0.06-1.12-0.34-2.27-0.28-3.39c0.21-3.93,0.5-7.86,0.83-11.79c0.18-2.14,0.55-4.27,0.7-6.41
		c0.22-3.09,0.42-6.18,0.43-9.27c0.02-3.27-0.34-6.55-0.26-9.82C103.18,46.31,103.57,42.65,103.82,38.99z M114.07,120.02
		c-1.12-0.24-1.35,0.79-1.41,2.07c-0.09,1.92-0.08,3.85-0.39,5.74c-0.2,1.24,0.08,1.8,1.27,1.88c0.71,0.05,1.42,0.05,2.13,0.01
		c1.75-0.1,3.5-0.25,5.24-0.34c0.98-0.05,2,0.13,2.94-0.06c2.53-0.51,5.06-1.06,7.53-1.81c2.37-0.72,4.72-1.58,6.97-2.63
		c2.13-0.99,4.14-2.25,6.13-3.5c1.15-0.72,2.31-1.53,3.21-2.52c1.07-1.18,1.96-2.55,2.75-3.94c0.83-1.47,1.93-3.03,2.04-4.61
		c0.12-1.73-0.77-3.52-1.21-5.29c-0.17-0.66-0.25-1.36-0.5-1.99c-0.72-1.81-2.46-1-3.73-1.31c-0.52-0.12-1.55,0.23-1.74,0.64
		c-0.93,2.03-1.51,4.24-2.51,6.23c-0.82,1.64-1.9,3.22-3.16,4.56c-1.13,1.2-2.6,2.12-4.03,2.98c-1.61,0.98-3.3,1.86-5.03,2.59
		c-1.06,0.45-2.27,0.61-3.43,0.79c-2.14,0.34-4.28,0.77-6.43,0.87C118.69,120.47,116.64,120.18,114.07,120.02z M132.42,264.25
		c-1.78-0.62-3.23-0.82-4.3-1.56c-3.09-2.12-3.45-5.56-3.6-8.88c-0.19-4.25-0.07-8.51-0.04-12.76c0.03-4.04-0.03-8.08,0.21-12.1
		c0.18-3.05,0.57-6.11,1.18-9.1c0.67-3.27,1.66-6.48,2.59-9.7c0.32-1.1,0.9-2.12,1.29-3.2c0.11-0.32-0.03-0.72-0.05-1.09
		c-0.2,0.03-0.45-0.01-0.58,0.09c-2.52,2.12-3.32,5.26-4.4,8.13c-1.04,2.76-1.53,5.74-2.07,8.66c-0.48,2.59-0.86,5.23-1.01,7.86
		c-0.42,7.83-0.8,15.66-1,23.5c-0.09,3.55,0.33,7.11,0.42,10.67c0.05,2.16-0.14,4.32-0.11,6.48c0.04,2.48,0.16,4.97,0.37,7.44
		c0.03,0.36,0.73,0.66,1.12,0.99c0.17-0.28,0.44-0.54,0.5-0.84c0.26-1.26,0.54-2.53,0.67-3.8c0.18-1.77,0.3-3.55,0.34-5.33
		c0.06-2.71,1.66-4.79,4.27-4.21c1.42,0.31,2.78,1.07,4.2,1.17c2.11,0.16,4.34,0.26,6.37-0.22c3.52-0.83,6.17-3.25,8.66-5.76
		c0.21-0.21,0.18-0.66,0.27-1c-0.23,0.04-0.47,0.05-0.69,0.13c-1.31,0.51-2.58,1.14-3.93,1.52
		C139.48,262.39,135.82,263.33,132.42,264.25z M98.22,280.17c0.17-2.05,0.38-4.78,0.63-7.51c0.55-6.14,1.06-12.29,1.71-18.42
		c0.37-3.56,0.9-7.1,1.48-10.64c0.6-3.69,1.36-7.36,2.03-11.04c0.57-3.1,1.13-6.21,1.67-9.32c0.05-0.27-0.12-0.58-0.19-0.87
		c-0.12,0.08-0.32,0.14-0.36,0.25c-0.33,0.95-0.67,1.89-0.93,2.86c-0.56,2.13-1.05,4.27-1.62,6.4c-0.79,2.99-1.7,5.96-2.42,8.97
		c-0.62,2.6-1.04,5.26-1.55,7.88c-1.06,5.46-2.29,10.89-3.14,16.38c-0.62,3.99-0.73,8.06-1.12,12.08c-0.33,3.42-0.76,6.82-1.1,10.24
		c-0.04,0.41,0.06,1.14,0.28,1.22c0.95,0.35,1.96,0.61,2.97,0.71c1.42,0.14,2.2-0.6,2.12-2.06
		C98.55,285.16,98.4,283.02,98.22,280.17z M149.94,240.78c0.17,0.5,0.33,1,0.54,1.48c0.02,0.05,0.38,0.03,0.5-0.06
		c0.78-0.57,1.55-1.15,2.29-1.76c2.01-1.65,4.19-3.15,5.96-5.03c2.51-2.65,4.69-5.61,7.08-8.39c0.62-0.72,1.37-1.56,2.21-1.81
		c2.82-0.82,5.2-1.95,5.65-5.24c0.05-0.33-0.06-0.69-0.09-1.03c-0.25,0.14-0.55,0.23-0.75,0.43c-1.02,1-1.92,2.16-3.06,2.99
		c-1.19,0.87-2.55,1.87-3.92,2.03c-3.68,0.43-7.47,0.07-11.09,0.74c-3.45,0.63-6.18,2.74-5.97,7.22
		C149.43,235.14,149.94,240.73,149.94,240.78z M115.47,199.15c0.08,0.69,0.14,1.38,0.24,2.06c0.06,0.39,0.2,0.77,0.3,1.15
		c0.33-0.17,0.67-0.35,1-0.52c2.81-1.41,5.5-3.21,8.46-4.11c2.28-0.69,4.44-1.15,5.77-3.27c0.19-0.3,0.13-1.08-0.11-1.3
		c-2.9-2.55-5.97-4.92-8.78-7.57c-2.2-2.08-4.08-4.48-6.11-6.73c-0.14-0.15-0.31-0.28-0.46-0.42c-0.08,0.2-0.25,0.4-0.24,0.6
		c0.09,2.11,0.29,4.22,0.31,6.34C115.91,189.97,115.47,199.02,115.47,199.15z M171.02,212.71c3.1-0.6,5.6-1.05,8.08-1.6
		c0.44-0.1,0.77-0.65,1.15-0.99c-0.23-0.1-0.46-0.3-0.69-0.3c-2.86-0.05-5.73-0.06-8.59-0.11c-4.91-0.07-9.51-1.47-14-3.32
		c-2.82-1.16-5.58-2.45-8.37-3.67c-0.2-0.09-0.44-0.07-0.66-0.1c0.1,0.23,0.14,0.56,0.32,0.69c1.94,1.36,3.81,2.86,5.87,3.98
		c2.45,1.33,5,2.61,7.65,3.42C164.96,211.69,168.28,212.14,171.02,212.71z M145.49,95.22c1.06,0.29,1.51,0.56,1.91,0.5
		c0.9-0.13,2.38-0.2,2.55-0.68c0.5-1.42,0.51-3.02,0.6-4.56c0.01-0.16-1.01-0.58-1.08-0.5C148.22,91.53,147.04,93.13,145.49,95.22z
		 M160.05,66.42c0,0.45-0.01,0.9,0,1.34c0.02,0.63,0.07,1.26,0.11,1.88c0.42-0.36,0.99-0.64,1.23-1.09c0.44-0.81,1.12-1.87,0.9-2.57
		c-0.33-1.06-1.35-1.9-2.08-2.84c-0.05,1.04-0.11,2.07-0.16,3.11C160.04,66.31,160.05,66.37,160.05,66.42z M155.47,118.48
		c0.22,0.29,0.41,0.74,0.6,0.74c0.26,0,0.76-0.43,0.73-0.52c-0.17-0.5-0.48-0.95-0.74-1.42
		C155.88,117.63,155.71,117.99,155.47,118.48z"/>
	<path class="st1" d="M56.88,282.11c-4.98-0.47-8.62-1.05-12.26-1.08c-4.37-0.04-8.74,0.46-13.12,0.56
		c-1.21,0.03-2.45-0.75-3.66-0.74c-1.72,0.02-3.45,0.36-5.15,0.69c-1.89,0.38-3.8-0.63-4.25-2.41c-0.32-1.27,1.1-2.91,2.78-3.41
		c2.5-0.75,4.91-0.3,7.36,0.24c0.79,0.17,1.74-0.18,2.57-0.46c0.19-0.06,0.32-0.86,0.18-1.2c-0.43-1.02-1.01-1.98-1.53-2.96
		c-1.44-2.7-2.71-5.51-4.36-8.09c-1.84-2.87-4.01-5.53-6.05-8.27c-0.53-0.72-1.12-1.39-1.67-2.09c-0.09-0.11-0.13-0.26-0.19-0.39
		c0.15,0.04,0.31,0.07,0.46,0.13c3.4,1.41,6.52,3.25,9.11,5.9c1.61,1.66,3.15,3.38,4.75,5.05c0.2,0.21,0.5,0.32,0.75,0.48
		c0.05-0.28,0.04-0.6,0.17-0.84c0.44-0.83,1.03-1.6,1.36-2.47c0.48-1.24,0.87-2.52,1.14-3.82c0.51-2.48,0.92-4.98,1.33-7.48
		c0.13-0.82,0.02-1.68,0.19-2.49c0.64-3.03,1.26-6.07,2.09-9.04c0.26-0.92,1.05-1.78,1.81-2.43c0.29-0.25,1.47-0.04,1.68,0.3
		c0.34,0.56,0.39,1.44,0.25,2.12c-0.65,3.36-1.42,6.7-2.09,10.06c-0.3,1.51-0.63,3.04-0.65,4.57c-0.05,3.76,0.03,7.52,0.16,11.27
		c0.04,1.21,0.39,2.43,0.68,3.62c0.07,0.28,0.49,0.47,0.74,0.7c0.13-0.3,0.23-0.63,0.41-0.9c1.08-1.58,0.41-4.02,2.5-5.1
		c0.16-0.08,0.47-0.18,0.48-0.16c0.32,0.67,0.79,1.33,0.86,2.03c0.14,1.59,0.06,3.19,0.14,4.78c0,0.09,0.69,0.32,0.88,0.2
		c0.36-0.23,0.71-0.63,0.83-1.02c0.51-1.66,0.83-3.38,1.41-5.01c0.68-1.91,1.55-3.75,2.34-5.62c0.04-0.09,0.14-0.14,0.22-0.21
		c0.04,0.12,0.1,0.23,0.11,0.35c0.12,2.34,0.21,4.69,0.35,7.03c0.06,1.04,0.21,2.08,0.34,3.12c0.01,0.11,0.11,0.22,0.17,0.32
		c0.22-0.15,0.48-0.26,0.64-0.45c0.95-1.08,1.88-2.18,2.83-3.26c0.14-0.16,0.42-0.19,0.63-0.29c0.03,0.21,0.15,0.46,0.08,0.63
		c-0.51,1.31-1.18,2.57-1.57,3.91c-0.63,2.19-1.15,4.43-1.53,6.67c-0.04,0.26,1.06,0.97,1.69,1.04c1.3,0.15,2.64,0.05,3.96-0.01
		c1.77-0.08,3.55-0.36,5.31-0.23c0.57,0.04,1.48,1.08,1.48,1.68c0.01,0.76-0.58,2-1.19,2.21C61.82,280.87,58.73,281.61,56.88,282.11
		z"/>
</g>
</svg>
