<?xml version="1.0" encoding="utf-8"?>
<!-- Generator: Adobe Illustrator 24.0.3, SVG Export Plug-In . SVG Version: 6.00 Build 0)  -->
<svg version="1.1" id="Layer_1" xmlns="http://www.w3.org/2000/svg" xmlns:xlink="http://www.w3.org/1999/xlink" x="0px" y="0px"
	 viewBox="0 0 1366 768" style="enable-background:new 0 0 1366 768;" xml:space="preserve">
<style type="text/css">
	.st0{fill:#FFF5D6;stroke:#221F1F;stroke-miterlimit:10;}
	.st1{fill:none;stroke:#221F1F;stroke-miterlimit:10;}
	.st2{fill:#FAEC1B;stroke:#221F1F;stroke-miterlimit:10;}
	.st3{fill:#221F1F;stroke:#221F1F;stroke-miterlimit:10;}
	.st4{fill:#FFFFFF;stroke:#221F1F;stroke-miterlimit:10;}
	.st5{fill:#3C54A3;stroke:#221F1F;stroke-miterlimit:10;}
</style>
<polyline class="st0" points="712.95,243.45 611.46,189.16 620,173.13 635.3,175.42 627.34,155.4 645.5,158.85 635.15,136.26 
	653.24,141.22 644.32,86.87 605.79,58.95 555.25,58.93 553.3,102.76 595.07,125.01 539.24,250.24 523.15,372.72 541.22,382.35 
	575.93,313.3 552.33,388.27 570.2,397.79 610.85,332.53 715.13,362.96 674.83,452.78 698.16,465.97 746.5,394.1 719.14,477.15 
	741.34,488.98 824.32,353.88 843.61,368.27 832.27,339.04 853.14,350.39 839.44,324.09 866.39,325.52 735.89,255.72 "/>
<polyline class="st0" points="608.39,60.84 612.9,33 599.8,33 603.26,58.95 "/>
<polyline class="st0" points="614.13,65.39 624.72,33 635.3,44.22 618.79,68.37 "/>
<path class="st1" d="M589.8,68.37c0.42,1.09,2.11,5.13,6.63,7.61c4.71,2.58,9.24,1.67,10.32,1.42"/>
<path class="st1" d="M553.7,94.18c3.01,1.82,6.61,3.39,15.36,3.13c4.11-0.12,7.53-1.02,10.04-1.92"/>
<polyline class="st1" points="532.29,377.59 522.22,396.5 512.97,391.57 "/>
<polyline class="st1" points="561.89,393.36 551.81,412.27 543.8,408 "/>
<polyline class="st1" points="685.06,458.56 674.81,477.81 664.64,472.39 "/>
<polyline class="st1" points="729.28,482.56 719.2,501.46 709.96,496.53 "/>
<path class="st2" d="M1063.4,413.35c-18.28-8.18-37.15-17.13-56.49-26.94c-23.73-12.03-46.02-24.26-66.87-36.43
	c16.75,16.84,33.5,33.69,50.26,50.53c-23.21-13.62-48.49-30.23-74.64-50.46c-19.83-15.34-37.45-30.65-52.99-45.34l6.21-10.83
	c20.42,3.92,42.36,8.97,65.49,15.47c21.61,6.08,41.66,12.71,60.06,19.5c-13.9,0.59-27.8,1.17-41.7,1.76
	c14.84,9.57,30.11,19.96,45.68,31.27C1022.18,379.16,1043.81,396.47,1063.4,413.35"/>
<g>
	<path class="st3" d="M464.79,619.19v-155.3h19.03v134.14h60.45v21.16H464.79z"/>
	<path class="st3" d="M527.55,554.86V452.63h12.53v88.3h39.79v13.93H527.55z"/>
	<path class="st3" d="M658.21,593.99l-6.99-25.27h-40.12l-7,25.27h-16.42l37.26-125.81h12.42l37.27,125.81H658.21z M631.51,496.63
		l-15.85,55.84h31.27L631.51,496.63z"/>
	<path class="st3" d="M758.33,627.27v-84.11l-23.42,61.31h-11.42l-23.99-61.31v84.11h-15.42V501.46h15.42l29.7,78.28l29.13-78.28
		h15.42v125.81H758.33z"/>
	<path class="st3" d="M863.51,571.45l-6.99-25.27H816.4l-7,25.27h-16.42l37.26-125.81h12.42l37.27,125.81H863.51z M836.81,474.09
		l-15.85,55.84h31.27L836.81,474.09z"/>
	<path class="st3" d="M549.54,698.05c-4.4,0-7.47-1.49-10.42-5.14l4.34-5.29c1.51,1.86,2.95,3.2,6.09,3.2
		c4.82,0,7.77-3.65,7.77-10.58v-35.7h6.51v36.3C563.82,691.86,557.44,698.05,549.54,698.05z"/>
	<path class="st3" d="M584.96,680.9c0,6.48,2.77,10.58,7.77,10.58c3.44,0,5.24-1.19,7.41-3.88l3.92,4.55
		c-3.13,3.88-6.09,5.89-11.45,5.89c-7.65,0-13.74-4.99-13.74-19.38c0-12.22,5.12-19.3,12.95-19.3c8.19,0,12.95,7.45,12.95,18.18
		v3.35H584.96z M597.85,670.47c-0.96-2.83-3.13-4.77-6.02-4.77c-2.89,0-5.12,1.94-6.09,4.77c-0.6,1.71-0.72,2.83-0.78,5.14h13.74
		C598.64,673.3,598.46,672.18,597.85,670.47z"/>
	<path class="st3" d="M628.75,697.6c-5.72,0-8.37-5.07-8.37-10.51V666.3h-3.49v-5.81h3.49v-11.48h6.15v11.48h5.91v5.81h-5.91v20.42
		c0,2.76,1.08,4.4,3.37,4.4h2.53v6.48H628.75z"/>
	<path class="st3" d="M668.57,694.69c-1.69,2.09-4.34,3.35-7.41,3.35c-3.25,0-5.78-1.04-8.01-4.32v19.16H647v-53.07h6.02v4.03
		c2.29-3.43,4.76-4.47,8.07-4.47c3.07,0,5.78,1.27,7.47,3.35c3.07,3.8,3.44,10.21,3.44,15.95
		C672,684.41,671.64,690.89,668.57,694.69z M659.53,666.15c-5.54,0-6.39,5.81-6.39,12.52c0,6.71,0.84,12.59,6.39,12.59
		c5.54,0,6.33-5.89,6.33-12.59C665.85,671.96,665.07,666.15,659.53,666.15z"/>
	<path class="st3" d="M703.5,697.6v-3.43c-2.23,2.76-4.34,3.88-8.14,3.88c-3.79,0-6.33-1.12-8.19-3.43
		c-1.57-2.01-2.41-4.92-2.41-8.12c0-6.34,3.55-10.88,10.54-10.88h8.07v-2.68c0-4.77-1.93-7.08-6.69-7.08c-3.37,0-5,0.97-6.69,3.65
		l-4.04-4.7c2.89-4.17,5.9-5.44,10.96-5.44c8.37,0,12.59,4.4,12.59,12.97v25.27H703.5z M703.38,680.9h-7.17
		c-3.62,0-5.48,2.01-5.48,5.44c0,3.43,1.75,5.37,5.6,5.37c2.35,0,4.1-0.22,5.72-2.16c0.91-1.12,1.33-2.91,1.33-5.59V680.9z"/>
	<path class="st3" d="M737.77,698.05c-6.87,0-13.62-5.22-13.62-19.38c0-14.16,6.75-19.3,13.62-19.3c4.22,0,7.17,1.49,10.06,5.29
		l-4.22,5.07c-1.93-2.61-3.44-3.58-5.84-3.58c-2.35,0-4.34,1.19-5.67,3.35c-1.32,2.09-1.81,4.77-1.81,9.17
		c0,4.4,0.48,7.15,1.81,9.24c1.33,2.16,3.31,3.35,5.67,3.35c2.41,0,3.92-0.97,5.84-3.58l4.22,4.99
		C744.94,696.48,741.99,698.05,737.77,698.05z"/>
	<path class="st3" d="M780.9,697.6l-8.56-17.44l-4.52,6.34v11.1h-6.15v-53.06h6.15v32.72l11.87-17.44h7.47l-10.6,14.83l11.93,22.96
		H780.9z"/>
	<path class="st3" d="M811.32,698.05c-5,0-9.22-1.04-12.83-5.44l4.04-4.99c2.47,3.13,5.78,3.95,8.8,3.95c3.74,0,6.69-1.64,6.69-5.22
		c0-2.53-1.14-4.17-4.1-4.47l-4.88-0.52c-5.72-0.6-9.04-3.8-9.04-10.43c0-7.38,5.12-11.55,11.51-11.55c4.58,0,8.5,1.19,11.33,4.25
		l-3.86,4.84c-1.93-2.01-4.64-2.76-7.53-2.76c-3.68,0-5.54,2.01-5.54,4.84c0,2.24,0.97,3.95,4.22,4.32l4.82,0.52
		c5.72,0.6,9.1,3.95,9.1,10.66C824.03,693.95,818.61,698.05,811.32,698.05z"/>
</g>
<path class="st4" d="M735.89,255.72l98.56,52.72c11.44,6.45,26.09,2.23,32.3-9.11c6.3-11.52,1.71-26.37-10.2-32.35
	c-28.15-15-87.37-46.55-126.39-67.35c-18.33-9.77-32.21-17.16-36.32-19.36c-12.09-5.76-26.49-0.45-31.8,11.03
	c-4.91,10.63-0.81,23.91,9.84,30.17l41.07,21.97"/>
<path class="st5" d="M683.65,353.77l74.26-139.36l-22.97-12.23c0,0-50.01,93.85-76.81,144.15L683.65,353.77z"/>
</svg>
