<?xml version="1.0" encoding="utf-8"?>
<!-- Generator: Adobe Illustrator 24.0.3, SVG Export Plug-In . SVG Version: 6.00 Build 0)  -->
<svg version="1.1" id="Layer_1" xmlns="http://www.w3.org/2000/svg" xmlns:xlink="http://www.w3.org/1999/xlink" x="0px" y="0px"
	 viewBox="0 0 1366 768" style="enable-background:new 0 0 1366 768;" xml:space="preserve">
<style type="text/css">
	.st0{fill:#FFFFFF;stroke:#000000;stroke-miterlimit:10;}
	.st1{fill:#FFFFFF;stroke:#231F20;stroke-miterlimit:10;}
	.st2{fill:#EC1E24;stroke:#231F20;stroke-width:0.5;stroke-miterlimit:10;}
	.st3{fill:#EC1C24;stroke:#231F20;stroke-width:0.5;stroke-miterlimit:10;}
	.st4{fill:none;stroke:#D71F26;stroke-miterlimit:10;}
	.st5{fill:none;stroke:#231F20;stroke-width:4;stroke-miterlimit:10;}
	.st6{fill:#231F20;}
</style>
<path class="st0" d="M512.75,446.99c2.4,9.23,6.44,21.09,13.5,33.89c8.01,14.52,17.14,25.23,24.37,32.51
	c8.02-8.41,17.29-19.63,25.94-33.92c7.09-11.73,12.11-22.79,15.69-32.25"/>
<path class="st0" d="M805.2,445.09c2.4,9.23,6.44,21.09,13.5,33.89c8.01,14.52,17.14,25.23,24.37,32.51
	c8.02-8.41,17.29-19.63,25.94-33.92c7.09-11.73,12.11-22.79,15.69-32.25"/>
<path class="st1" d="M1011.98,374.94c-21.88,57.18-102.63,70.52-102.63,70.52l-412.62,1.53c0,0-77.01-18.24-108.83-60.73"/>
<path class="st2" d="M552.5,457.84c-20.12,0-36.43,16.31-36.43,36.43s16.31,36.43,36.43,36.43c20.12,0,36.43-16.31,36.43-36.43
	S572.62,457.84,552.5,457.84"/>
<circle class="st0" cx="552.5" cy="494.27" r="16.35"/>
<path class="st2" d="M844.95,455.95c-20.12,0-36.43,16.31-36.43,36.43c0,20.12,16.31,36.43,36.43,36.43
	c20.12,0,36.43-16.31,36.43-36.43C881.38,472.26,865.06,455.95,844.95,455.95"/>
<circle class="st0" cx="844.95" cy="492.38" r="16.35"/>
<path class="st1" d="M488.39,421.14h421.94c14.74-2.37,26.91-5.38,35.86-7.92c0,0,21.79-6.18,48.78-20.85
	c3.76-2.05,10.12-5.63,14.59-12.92c1.23-2,6.79-11.09,3.75-17.5c-2.92-6.17-12.71-7.6-28.77-7.75c-14.92-0.14-35.67,0.82-60.87,5.66
	c-145.09,0.28-290.19,0.56-435.28,0.83c-15.88,0.25-28.69-0.97-37.52-2.15c-16.49-2.21-24.08-4.93-38.3-3.71
	c-9.95,0.86-23.68,2.04-28,10.86c-4.2,8.56,2.75,19.67,3.75,21.26c5.91,9.45,15.93,15.26,55.67,24.86
	C455.39,414.56,470.46,417.92,488.39,421.14z"/>
<g>
	<path class="st3" d="M586.37,319.45c-0.19,2.89-0.54,5.52-1.08,7.86c-0.53,2.35-1.27,4.5-2.2,6.45c-0.95,1.96-2.12,3.77-3.51,5.42
		c-1.4,1.64-3.06,3.22-4.98,4.72l15.87,27.44l-19.32,3.47l-12.27-26.33l-5.23,0.16l-2.26,23.12l-18.09-0.23
		c0.69-8.46,1.37-16.87,2.04-25.24c0.67-8.38,1.37-16.79,2.08-25.24c0.33-4.27,0.52-6.64,0.85-10.83c0.33-4.19,0.71-8.74,1.15-13
		c2.02-0.94,4.17-3.23,6.12-3.83c1.94-0.61,3.9-1.07,5.84-1.41c1.95-0.33,3.91-0.54,5.9-0.65c1.99-0.1,4.02-0.14,6.09-0.11
		c3.2,0.04,6.26,0.67,9.16,1.87c2.92,1.21,5.44,2.99,7.59,5.36c2.15,2.36,3.81,5.29,4.96,8.8
		C586.25,310.75,586.68,314.82,586.37,319.45z M567.41,320.99c0.1-1.56,0.03-2.99-0.21-4.29c-0.24-1.29-0.64-2.43-1.21-3.38
		c-0.57-0.95-1.31-1.7-2.21-2.25c-0.91-0.55-1.99-0.83-3.25-0.84c-0.56-0.01-1.11,0.03-1.65,0.12c-0.54,0.08-1.07,0.21-1.59,0.39
		l-2.02,20.68l1.01,0.01c1.21,0.01,2.45-0.18,3.72-0.57c1.27-0.39,2.44-1,3.49-1.84c1.05-0.84,1.94-1.93,2.66-3.25
		C566.87,324.43,567.29,322.84,567.41,320.99z"/>
	<path class="st3" d="M648.8,337.05c0.21,3.75,0.1,7.41-0.34,10.98c-0.44,3.57-1.17,6.94-2.19,10.13c-1.02,3.2-2.31,6.15-3.88,8.89
		c-1.57,2.74-3.37,5.13-5.4,7.2c-2.03,2.05-4.27,3.73-6.73,5.03c-2.45,1.3-5.09,2.11-7.9,2.43c-2.72,0.31-5.35,0.12-7.87-0.54
		c-2.51-0.67-4.9-1.74-7.14-3.2c-2.25-1.47-4.31-3.31-6.19-5.53c-1.88-2.22-3.51-4.73-4.9-7.55c-1.4-2.81-2.53-5.87-3.4-9.19
		c-0.87-3.31-1.41-6.79-1.62-10.47c-0.2-3.59-0.09-7.15,0.35-10.67c0.44-3.52,1.17-6.87,2.19-10.07c1.02-3.2,2.31-6.16,3.86-8.91
		c1.55-2.76,3.32-5.18,5.32-7.28c2-2.11,4.2-3.81,6.59-5.12c2.39-1.32,4.95-2.12,7.67-2.43c4.39-0.5,8.44-0.03,12.16,1.41
		c3.72,1.45,6.96,3.75,9.71,6.91c2.75,3.15,4.97,7.1,6.66,11.83C647.45,325.64,648.46,331.01,648.8,337.05z M628.73,340.95
		c-0.1-1.77-0.38-3.48-0.86-5.11c-0.48-1.63-1.11-3.05-1.91-4.27c-0.8-1.22-1.76-2.17-2.88-2.85c-1.12-0.68-2.38-0.95-3.77-0.79
		c-1.42,0.16-2.68,0.66-3.75,1.49c-1.08,0.83-1.99,1.9-2.72,3.21c-0.73,1.31-1.27,2.81-1.6,4.49c-0.33,1.68-0.45,3.42-0.34,5.24
		c0.1,1.73,0.38,3.45,0.84,5.14c0.46,1.69,1.09,3.2,1.9,4.52c0.81,1.32,1.77,2.35,2.89,3.1c1.12,0.73,2.4,1.03,3.82,0.87
		c1.42-0.16,2.68-0.69,3.77-1.59c1.09-0.89,1.99-2.03,2.71-3.42c0.71-1.39,1.23-2.97,1.56-4.7
		C628.73,344.54,628.84,342.77,628.73,340.95z"/>
	<path class="st3" d="M742.86,344.22l-0.24,24.5l-40.68,2.81l3.1-83.36l24.88-3.93l-8.03,61.67L742.86,344.22z"/>
</g>
<path class="st4" d="M794.4,497.69"/>
<path class="st2" d="M753.72,276.51c5.26-3.04,12.57-6.58,21.76-9.11c5.27-1.45,12.85-3.03,22.9-3.29
	c20.99-0.55,38.71,5.01,52.92,9.05c14.19,4.04,34.39,9.27,59.83,14.16c-2.09,1.96-6.73,3.88-11.85,5.84
	c-3.67,1.4-4.99,2.1-7.42,2.27c1.3-0.73,4.34-0.14,8.99,0.23c5.17,0.41,11.19,2.38,12.28,3.33c-6.82,9.23-16.98,21.02-31.35,32.33
	c-15.38,12.11-30.21,19.46-41.27,23.92c-8.39,2.94-19.56,5.97-32.95,7.27c-12.26,1.2-22.93,0.61-31.27-0.43
	c-18.38-6.47-31.95-22.01-35.37-40.72C736.41,296.73,751.74,278.75,753.72,276.51z"/>
<path class="st5" d="M867.34,272.66c1.35-1.08,6.69-5.62,8-13.61c0.02-0.12,0.04-0.23,0.05-0.34c1.06-7.19-3.61-13.98-10.65-15.76
	c-16.49-4.17-39.89-7.93-67.7-5.69c-36.08,2.91-63.51,14.61-79.25,22.78"/>
<path class="st2" d="M748.5,376.73c-0.95-3.16,1.32-6.38,4.61-6.61c5.65-0.39,12.68-0.29,20.58,1.2c9.8,1.85,17.52,5.19,22.76,7.97
	c2.43,1.45,7.59,4.97,11.32,11.63c1.6,2.85,2.57,5.62,3.16,8.07c1.05,4.37-1.57,8.8-5.87,10.13c-3.31,1.03-7.42,1.85-12.15,1.85
	c-9.97,0-17.31-3.65-20.55-5.53c-3.77-1.94-10.16-5.86-15.77-13.03C752.23,386.82,749.84,381.19,748.5,376.73z"/>
<path class="st2" d="M819.07,409.77c-0.96-2.42,0.04-5.16,2.3-6.43c9.94-5.57,22-11.08,36.12-15.24c5.36-1.58,10.52-2.82,15.42-3.79
	c5.27-0.66,12.2-0.99,20.19,0.06c10.57,1.39,18.92,4.66,24.52,7.39c-13.08,4.75-26.15,9.5-39.23,14.25l17.74,11.12l14.03-9.79
	l6.25,4.94l5.08-10.01l9.58,8.85l12.96-7.72c-0.24,4.48-1.24,12.12-5.53,20.41c-3.34,6.44-7.44,10.92-10.41,13.68
	c-5.77,4.55-14.42,10.36-25.94,14.87c-8.57,3.35-16.44,5.09-22.87,6c-3.46,0.49-6.98,0.15-10.29-0.98
	c-7.82-2.68-19.33-7.95-30.23-18.35C827.83,428.58,822.06,417.3,819.07,409.77z"/>
<circle class="st6" cx="835.59" cy="293.21" r="4.57"/>
<path class="st2" d="M520.21,315.15c-5.99,2.44-12.48,10.51-21.84,19.99c-0.72,0.73-12.33,14.52-13.04,15.31
	c-3.16,3.49-4.45,5.74-6.53,9.03c-3.85,6.1-4.1,13.03-3.82,20.24c0.32,8.32,1.37,18.04,3.83,28.68c3.64,15.8,9.18,28.45,13.99,37.52
	c3.79,0.92,11.48,2.25,20.66-0.14c7.38-1.93,12.61-5.45,15.52-7.76c-0.53-8.65-2.27-20.3-7.4-33.07c-1.68-4.19-3.52-7.99-5.39-11.39
	c-1.55-2.82-1.22-6.26,0.81-8.75c1.29-1.59,2.62-3.43,3.87-5.56c2.63-4.46,4.81-4.47,5.61-7.54c-1.78-2.34-4.31-4.73-5.14-11.81
	c-0.31-2.67-2.59-12.43-3.61-15.43C514.37,334.68,517.43,320.82,520.21,315.15z"/>
<path class="st3" d="M694.99,350.62v24.5l-40.65,3.21l3.18-81.1l23.73-4.01l-7.22,59.3L694.99,350.62z"/>
<g>
	<path class="st3" d="M386.82,265.36l0.22,22.5l-33.91,6.59c-0.85-11.72-1.67-23.37-2.46-34.96c-0.79-11.59-1.55-23.25-2.26-34.98
		l21.12-2.02c0.01,7.4,0.05,14.8,0.11,22.18c0.06,7.38,0.29,14.81,0.69,22.27c1.28-0.05,2.54-0.14,3.79-0.26
		c1.24-0.12,2.5-0.24,3.78-0.36c1.52-0.15,3-0.3,4.46-0.48C383.81,265.66,385.3,265.5,386.82,265.36z"/>
	<path class="st3" d="M443.72,249.97c0.26,3.05,0.23,6.02-0.09,8.91c-0.32,2.89-0.91,5.62-1.77,8.21c-0.86,2.58-1.96,4.98-3.31,7.19
		c-1.35,2.21-2.92,4.14-4.7,5.8c-1.78,1.66-3.76,3.01-5.94,4.04c-2.18,1.04-4.52,1.67-7.04,1.92c-2.44,0.23-4.79,0.07-7.06-0.49
		c-2.27-0.56-4.43-1.44-6.47-2.65c-2.04-1.21-3.93-2.72-5.65-4.53c-1.73-1.81-3.24-3.87-4.54-6.16c-1.3-2.29-2.38-4.79-3.22-7.48
		c-0.85-2.69-1.4-5.53-1.65-8.51c-0.25-2.92-0.21-5.8,0.11-8.66c0.33-2.85,0.92-5.57,1.77-8.16c0.86-2.58,1.95-4.99,3.29-7.21
		c1.34-2.22,2.88-4.18,4.63-5.87c1.75-1.69,3.69-3.06,5.81-4.11c2.12-1.05,4.4-1.69,6.84-1.92c3.92-0.38,7.57,0.04,10.94,1.24
		c3.36,1.2,6.31,3.09,8.84,5.67c2.53,2.58,4.59,5.8,6.2,9.65C442.29,240.7,443.3,245.08,443.72,249.97z M425.81,253.01
		c-0.12-1.44-0.41-2.83-0.87-4.15c-0.46-1.33-1.05-2.49-1.79-3.48c-0.74-0.99-1.62-1.77-2.64-2.33c-1.02-0.56-2.15-0.78-3.39-0.66
		c-1.27,0.12-2.39,0.52-3.34,1.18c-0.95,0.67-1.75,1.53-2.38,2.59c-0.63,1.06-1.08,2.27-1.35,3.63c-0.27,1.36-0.33,2.78-0.21,4.25
		c0.12,1.41,0.41,2.8,0.85,4.18c0.45,1.38,1.04,2.6,1.79,3.68c0.75,1.08,1.63,1.92,2.65,2.54c1.02,0.61,2.17,0.86,3.44,0.73
		c1.27-0.12,2.39-0.54,3.35-1.26c0.96-0.72,1.75-1.64,2.36-2.76s1.05-2.39,1.31-3.8C425.86,255.93,425.93,254.48,425.81,253.01z"/>
	<path class="st3" d="M501.26,265.26c0.24,2.78,0.03,5.22-0.62,7.31c-0.65,2.09-1.61,3.91-2.87,5.45c-1.26,1.54-2.75,2.84-4.47,3.9
		c-1.72,1.06-3.54,1.94-5.44,2.62c-1.91,0.69-3.83,1.21-5.78,1.57c-1.95,0.35-3.78,0.62-5.48,0.78c-1.68,0.16-3.42,0.25-5.24,0.27
		c-1.81,0.02-3.63-0.07-5.45-0.26c-1.82-0.2-3.62-0.52-5.41-0.98c-1.79-0.45-3.49-1.08-5.12-1.87l-5.66-64.78
		c1.45-0.92,3-1.77,4.65-2.55c1.65-0.78,3.35-1.47,5.08-2.06c1.74-0.59,3.48-1.07,5.22-1.46c1.74-0.39,3.44-0.66,5.09-0.82
		c1.92-0.18,3.88-0.22,5.87-0.11c1.99,0.11,3.92,0.44,5.79,0.97c1.87,0.53,3.65,1.28,5.31,2.26c1.67,0.97,3.16,2.23,4.48,3.75
		c1.32,1.53,2.4,3.36,3.25,5.47c0.85,2.12,1.4,4.6,1.65,7.45c0.16,1.88,0.1,3.66-0.19,5.34c-0.29,1.69-0.79,3.22-1.49,4.61
		c-0.7,1.39-1.59,2.6-2.68,3.63c-1.08,1.03-2.34,1.84-3.76,2.41c1.81,0.4,3.48,1.09,5.03,2.05c1.54,0.97,2.89,2.19,4.04,3.67
		c1.15,1.48,2.09,3.18,2.81,5.11C500.61,260.93,501.07,263.02,501.26,265.26z M478.17,238.56c-0.08-0.97-0.32-1.79-0.7-2.44
		c-0.38-0.66-0.83-1.18-1.34-1.57c-0.51-0.39-1.05-0.66-1.62-0.81c-0.57-0.15-1.08-0.2-1.51-0.16c-0.54,0.05-1.06,0.2-1.56,0.45
		c-0.5,0.25-0.98,0.53-1.44,0.85l0.72,11.19c0.62-0.06,1.39-0.2,2.3-0.42c0.91-0.22,1.77-0.6,2.58-1.13c0.81-0.53,1.48-1.27,2-2.22
		C478.1,241.35,478.3,240.11,478.17,238.56z M473.81,255.51c-0.79,0.08-1.53,0.25-2.25,0.52l0.83,11.48
		c0.41,0.06,0.82,0.12,1.22,0.16c0.4,0.05,0.79,0.05,1.17,0.02c0.57-0.05,1.18-0.19,1.85-0.41c0.66-0.22,1.27-0.58,1.83-1.09
		c0.56-0.51,1-1.17,1.32-1.98c0.33-0.81,0.43-1.85,0.32-3.12c-0.11-1.27-0.4-2.3-0.86-3.06c-0.46-0.77-1-1.35-1.6-1.75
		c-0.61-0.4-1.26-0.64-1.95-0.73C475.01,255.48,474.38,255.46,473.81,255.51z"/>
	<path class="st3" d="M549.53,252.73c0.4,4.59,0.09,8.62-0.9,12.08c-1,3.46-2.52,6.38-4.57,8.75c-2.05,2.38-4.52,4.22-7.43,5.53
		c-2.9,1.31-6.07,2.13-9.51,2.46c-1.33,0.13-2.8,0.05-4.42-0.24c-1.62-0.28-3.27-0.68-4.95-1.17c-1.68-0.5-3.31-1.05-4.87-1.66
		c-1.57-0.61-2.96-1.2-4.18-1.76l0.09-19.89c2.45,1.49,5.11,2.54,7.99,3.17c2.88,0.62,5.67,0.8,8.38,0.54
		c0.51-0.05,1.14-0.13,1.86-0.25c0.73-0.12,1.41-0.34,2.05-0.65c0.64-0.32,1.17-0.75,1.59-1.29c0.42-0.55,0.58-1.29,0.5-2.23
		c-0.06-0.64-0.26-1.17-0.63-1.59c-0.36-0.42-0.82-0.75-1.35-0.98c-0.54-0.24-1.14-0.4-1.8-0.49c-0.66-0.09-1.31-0.14-1.94-0.14
		c-0.63-0.01-1.21,0.02-1.76,0.07s-0.97,0.09-1.3,0.12c-2.33,0.22-4.48-0.03-6.47-0.75s-3.74-1.85-5.24-3.38
		c-1.51-1.53-2.75-3.44-3.71-5.73c-0.96-2.29-1.57-4.88-1.81-7.76c-0.34-3.96,0-7.56,1.01-10.82c1.01-3.26,2.5-6.09,4.47-8.49
		c1.96-2.4,4.29-4.32,6.97-5.76c2.69-1.44,5.52-2.3,8.5-2.59c1.33-0.13,2.7-0.2,4.12-0.22c1.42-0.02,2.84,0.06,4.26,0.23
		s2.81,0.42,4.18,0.77c1.37,0.34,2.68,0.81,3.93,1.4l0.22,20.57c-1.91-0.59-3.89-1.06-5.95-1.38c-2.06-0.33-4.05-0.4-5.98-0.22
		c-0.35,0.03-0.8,0.09-1.36,0.16c-0.55,0.07-1.13,0.18-1.73,0.32c-0.6,0.14-1.21,0.33-1.81,0.55c-0.61,0.23-1.14,0.51-1.61,0.84
		c-0.46,0.33-0.82,0.75-1.08,1.24c-0.26,0.5-0.35,1.07-0.26,1.7c0.09,0.74,0.36,1.28,0.82,1.65c0.45,0.36,1.02,0.6,1.7,0.72
		c0.68,0.12,1.42,0.14,2.22,0.07c0.8-0.08,1.59-0.18,2.37-0.3c0.78-0.12,1.51-0.25,2.18-0.36c0.67-0.11,1.23-0.18,1.66-0.18
		c2.18-0.04,4.18,0.34,5.99,1.15c1.82,0.81,3.4,1.96,4.74,3.45c1.34,1.5,2.43,3.33,3.26,5.5
		C548.77,247.63,549.3,250.05,549.53,252.73z"/>
	<path class="st3" d="M595.92,202.75l1.43,21.37l-12.05,1.76l2.56,46.82l-17.04,2.75l-5.56-46.53l-12.03,1.96l-1.56-23.79
		L595.92,202.75z"/>
	<path class="st3" d="M651.01,228.02c0.25,2.92,0.34,5.85,0.27,8.8c-4.6,0.81-9.15,1.85-13.65,3.11c-4.5,1.26-9.01,2.51-13.52,3.75
		c0.91,2.35,2.18,4.17,3.81,5.47c1.63,1.3,3.48,1.85,5.57,1.65c1.08-0.1,2.25-0.47,3.49-1.09c1.24-0.63,2.47-1.38,3.68-2.25
		c1.21-0.88,2.35-1.81,3.44-2.79c1.09-0.98,2.02-1.87,2.8-2.65l0.02,23.02c-0.97,1.11-2.04,2.07-3.21,2.89
		c-1.17,0.82-2.4,1.51-3.69,2.08c-1.29,0.56-2.6,1.01-3.94,1.34c-1.34,0.33-2.65,0.56-3.95,0.68c-2.68,0.26-5.17,0.04-7.47-0.66
		c-2.3-0.69-4.42-1.77-6.36-3.22c-1.94-1.45-3.68-3.22-5.23-5.31c-1.54-2.08-2.88-4.39-3.99-6.92c-1.12-2.53-2.03-5.23-2.75-8.11
		c-0.71-2.87-1.2-5.8-1.45-8.79c-0.27-3.12-0.31-6.26-0.12-9.42c0.19-3.16,0.63-6.23,1.32-9.2c0.69-2.97,1.63-5.76,2.84-8.36
		c1.21-2.6,2.68-4.91,4.42-6.94c1.74-2.03,3.76-3.67,6.06-4.94c2.31-1.27,4.91-2.04,7.8-2.32c2.41-0.23,4.64-0.03,6.71,0.6
		c2.06,0.63,3.93,1.6,5.61,2.91c1.68,1.31,3.19,2.92,4.51,4.82c1.32,1.9,2.46,4.02,3.41,6.34c0.95,2.33,1.72,4.81,2.32,7.44
		C650.35,222.57,650.77,225.27,651.01,228.02z M634.54,226.95c-0.08-0.94-0.25-1.89-0.49-2.87c-0.25-0.98-0.59-1.85-1.02-2.62
		c-0.43-0.77-0.97-1.39-1.61-1.85c-0.64-0.46-1.41-0.65-2.3-0.57c-1.08,0.1-2.01,0.56-2.77,1.36c-0.76,0.8-1.4,1.77-1.9,2.92
		c-0.5,1.15-0.89,2.38-1.16,3.68c-0.27,1.31-0.45,2.51-0.55,3.6l11.9-2.56L634.54,226.95z"/>
	<path class="st3" d="M706.22,214.82c0.23,2.62,0.25,5.01,0.07,7.17s-0.59,4.17-1.22,6.02c-0.63,1.85-1.51,3.59-2.62,5.22
		c-1.12,1.63-2.49,3.21-4.13,4.76l11.5,20.4l-17.89,6.18l-8.1-20.83l-5.02,0.68l1.07,21l-17.46,1.67
		c-0.52-7.66-1.05-15.28-1.58-22.88c-0.53-7.59-1.04-15.22-1.54-22.88c-0.28-3.86-0.55-7.69-0.83-11.48
		c-0.27-3.79-0.49-7.63-0.66-11.5c1.82-1.05,3.62-1.95,5.42-2.7c1.79-0.75,3.6-1.37,5.43-1.86c1.83-0.5,3.69-0.89,5.59-1.19
		c1.9-0.3,3.85-0.55,5.85-0.74c3.09-0.29,6.12-0.05,9.09,0.73s5.66,2.12,8.06,4.02c2.4,1.9,4.41,4.36,6.02,7.39
		C704.87,207.02,705.86,210.63,706.22,214.82z M688.16,218.17c-0.12-1.41-0.39-2.68-0.8-3.83c-0.41-1.14-0.96-2.11-1.64-2.91
		c-0.68-0.8-1.5-1.4-2.45-1.79c-0.95-0.4-2.03-0.54-3.25-0.42c-0.54,0.05-1.07,0.14-1.57,0.28c-0.51,0.13-1,0.31-1.47,0.52
		l0.96,18.77l0.97-0.09c1.16-0.11,2.33-0.41,3.51-0.89c1.17-0.48,2.21-1.16,3.1-2.02c0.89-0.86,1.59-1.93,2.1-3.19
		C688.13,221.32,688.31,219.85,688.16,218.17z"/>
</g>
</svg>
